OpenSim_Sub11_EMGPreOp_GRF.mot
version=1
nRows=63
nColumns=19
inDegrees=no
endheader
time	lFx	lFy	lFz	lCOPx	lCOPy	lCOPz	rFx	rFy	rFz	rCOPx	rCOPy	rCOPz	lMx	lMy	lMz	rMx	rMy	rMz
29.42000000	-8.99107085	493.49079643	53.25586672	0.69147853	0	-0.60498326	19.55526994	386.55625162	-40.82407818	0.54845185	0	-0.36499399	0	2.28977133	0	0	-2.31181642	0
29.43000000	-8.81134956	505.34525956	54.32760428	0.68902727	0	-0.60529247	16.42806485	356.92288077	-39.50966013	0.55101029	0	-0.36329414	0	2.29546347	0	0	-2.12364437	0
29.44000000	-8.57786649	515.70283151	55.06570231	0.68661408	0	-0.60550371	13.37137742	328.31238061	-37.89205980	0.55449925	0	-0.36144967	0	2.36105384	0	0	-1.95017654	0
29.45000000	-8.17952587	525.25764048	55.66274127	0.68390216	0	-0.60565622	10.41823482	301.19085893	-35.72400495	0.55870882	0	-0.35950115	0	2.45750617	0	0	-1.74713071	0.00000000
29.46000000	-7.52399258	534.42830831	56.24273294	0.68073213	0	-0.60572827	7.60471774	276.12052451	-32.89243188	0.56364831	0	-0.35757393	0	2.57162834	0	0	-1.52644168	0.00000000
29.47000000	-6.70899619	543.29024168	56.80314070	0.67724531	0	-0.60572717	5.27089131	253.41806324	-29.44617119	0.56851658	0	-0.35580969	0	2.69213310	0	0	-1.32499684	0.00000000
29.48000000	-5.88242192	551.76570253	57.24877842	0.67361778	0	-0.60570626	3.96912658	233.08517402	-25.74974791	0.57193433	0	-0.35433064	0	2.81254496	0	0	-1.11796106	-0.00000000
29.49000000	-5.05471348	560.05504410	57.58528449	0.67000113	0	-0.60567822	3.65663207	214.85168869	-22.10498528	0.57337826	0	-0.35323999	0	2.93746431	0	0	-0.83409645	-0.00000000
29.50000000	-4.17605377	568.37608005	57.89584354	0.66649019	0	-0.60562984	3.68130720	198.10531954	-18.52802323	0.57378832	0	-0.35260271	0	3.07027078	0	0	-0.51072133	0.00000000
29.51000000	-3.18625547	576.57371743	58.14963843	0.66315257	0	-0.60558027	3.62782988	182.40439500	-15.11613664	0.57427771	0	-0.35246124	0	3.22932522	0	0	-0.21200107	0.00000000
29.52000000	-2.02740283	584.50246725	58.29445331	0.65995351	0	-0.60555788	3.51839805	167.59449700	-12.12877148	0.57486287	0	-0.35282273	0	3.41717101	0	0	0.00039469	-0.00000000
29.53000000	-0.73633835	592.24194125	58.36605501	0.65682156	0	-0.60556635	3.43139804	153.78985286	-9.84828487	0.57582020	0	-0.35335967	0	3.64472948	0	0	0.10440101	0.00000000
29.54000000	0.57063362	600.00622056	58.44463818	0.65372587	0	-0.60559532	3.37559755	141.18310052	-8.40139118	0.57637577	0	-0.35359392	0	3.90468774	0	0	0.13342440	0
29.55000000	1.83407510	607.58560323	58.53995436	0.65053166	0	-0.60560406	3.22628350	129.78340265	-7.72315663	0.57566860	0	-0.35335871	0	4.15787766	0	0	0.16760862	0
29.56000000	3.25772062	614.65422938	58.60625766	0.64716708	0	-0.60560933	2.84163262	119.23179926	-7.36811741	0.57379304	0	-0.35303373	0	4.37324071	0	0	0.20954221	0
29.57000000	4.95751180	620.99872156	58.65546867	0.64363306	0	-0.60561270	2.26702506	109.17439605	-6.70813668	0.57387146	0	-0.35342659	0	4.56257469	0	0	0.26685917	0
29.58000000	6.74265952	626.78147935	58.81122311	0.64013520	0	-0.60559885	1.70868973	99.11753185	-5.39215263	0.57708148	0	-0.35547674	0	4.72777990	0	0	0.31039957	0
29.59000000	8.37751081	632.21649802	59.08258842	0.63669403	0	-0.60559098	1.41353228	88.78672988	-3.94678611	0.58482231	0	-0.35983561	0	4.88960870	0	0	0.32285421	0
29.60000000	9.83176496	637.17449642	59.42217966	0.63339647	0	-0.60563250	1.29184300	78.24059231	-3.07339619	0.59575780	0	-0.36602975	0	5.00415089	0	0	0.29584409	0
29.61000000	11.13768336	641.03350899	59.70102719	0.63026299	0	-0.60571416	1.09163569	67.67055387	-2.87874566	0.60381903	0	-0.36973424	0	5.07193953	0	0	0.27036310	0
29.62000000	12.30487617	643.32148689	59.85608073	0.62733014	0	-0.60583306	0.45749386	57.04883644	-2.93492532	0.58555344	0	-0.35934919	0	5.07719978	0	0	0.21227585	0
29.63000000	13.37788571	643.98908577	59.78804475	0.62438996	0	-0.60592865	-0.76833159	46.67514050	-2.94645095	0.51072589	0	-0.31502953	0	5.08139520	0	0	0.13999703	0
29.64000000	14.35344555	643.56655525	59.51209588	0.62147389	0	-0.60597358	-2.42633874	36.79218742	-2.81433880	0.35685546	0	-0.22201322	0	5.08720475	0	0	0.05100195	0.00000000
29.65000000	15.14595571	642.67431734	59.03824187	0.61863540	0	-0.60595377	-4.19618917	27.69175407	-2.60763058	0.16988411	0	-0.10639181	0	5.12867820	0	0	0.01025031	-0.00000000
29.66000000	15.63275559	641.65761139	58.48183986	0.61597269	0	-0.60587961	-5.59705825	19.48041996	-2.31515634	0.04303618	0	-0.02733544	0	5.19481593	0	0	-0.00503542	0.00000000
29.67000000	15.94551813	640.49197406	57.88590675	0.61339714	0	-0.60581088	-5.96897704	12.30809326	-1.84183756	-0.01008532	0	0.00600663	0	5.32066060	0	0	-0.00676524	-0.00000000
29.68000000	16.23652375	639.01745451	57.29387787	0.61097051	0	-0.60579722	-4.89108595	6.37385723	-1.16286385	-0.01948526	0	0.01205442	0	5.46465584	0	0	-0.00412948	-0.00000000
29.69000000	16.50005550	637.05064183	56.70832519	0.60867980	0	-0.60580998	-2.83345697	2.12777877	-0.47514899	-0.01305880	0	0.00814007	0	5.59630121	0	0	-0.00154707	0.00000000
29.70000000	16.67604493	634.65460747	56.16639090	0.60654093	0	-0.60582394	-1.10968310	-0.13365953	0.00960868	-0.00539569	0	0.00338748	0	5.65182043	0	0	-0.00015896	-0.00000000
29.71000000	16.77845522	632.06919391	55.66289728	0.60441740	0	-0.60579615	-0.24548478	-0.79179154	0.15745179	-0.00090875	0	0.00058593	0	5.67611149	0	0	0.00027976	0.00000000
29.72000000	16.84897150	629.61045145	55.20591962	0.60225150	0	-0.60572087	-0.00284242	-0.70494610	0.18733704	0.00068988	0	-0.00042069	0	5.68577210	0	0	0.00026760	-0.00000000
29.73000000	16.99236485	627.56670970	54.76804125	0.59993736	0	-0.60563404	-0.02439996	-0.52376851	0.17635177	0.00079618	0	-0.00049389	0	5.69999613	0	0	0.00014209	-0.00000000
29.74000000	17.31558125	626.23813373	54.37836649	0.59739427	0	-0.60554535	-0.10542945	-0.39565531	0.12325430	0.00046033	0	-0.00028747	0	5.73819150	0	0	0.00004405	-0.00000000
29.75000000	17.83132528	625.74494540	54.03168046	0.59470791	0	-0.60544001	-0.16738814	-0.30981302	0.11710376	0.00016137	0	-0.00010165	0	5.82278118	0	0	-0.00000194	0.00000000
29.76000000	18.46426471	626.15061618	53.78119396	0.59207882	0	-0.60533659	-0.21404320	-0.25643875	0.11179956	0.00000878	0	-0.00000619	0	5.91880547	0	0	-0.00001318	-0.00000000
29.77000000	19.10992430	627.25753070	53.64337944	0.58953339	0	-0.60525142	-0.24476951	-0.28222231	0.09978420	-0.00003548	0	0.00002182	0	5.98347306	0	0	-0.00001012	-0.00000000
29.78000000	19.82556955	628.81879728	53.56168369	0.58690261	0	-0.60518551	-0.26815863	-0.38895791	0.09821571	-0.00003093	0	0.00001923	0	6.01215462	0	0	-0.00000469	0.00000000
29.79000000	20.69805648	630.76614568	53.53076736	0.58406721	0	-0.60512269	-0.26346308	-0.51683355	0.08301924	-0.00001560	0	0.00000976	0	6.04870140	0	0	-0.00000111	0.00000000
29.80000000	21.71225518	633.20428973	53.60213049	0.58107921	0	-0.60506082	-0.24764642	-0.55216763	0.05070947	-0.00000442	0	0.00000280	0	6.11955185	0	0	0.00000034	0.00000000
29.81000000	22.74612880	636.09249228	53.81634102	0.57807004	0	-0.60500370	-0.23378320	-0.58556516	0.03378140	0.00000054	0	-0.00000031	0	6.19835097	0	0	0.00000057	0.00000000
29.82000000	23.75622595	639.36054988	54.13913833	0.57511241	0	-0.60496322	-0.21290724	-0.60117899	-0.00090486	0.00000161	0	-0.00000099	0	6.28036827	0	0	0.00000037	-0.00000000
29.83000000	24.71532402	643.03908270	54.60396917	0.57227935	0	-0.60495152	-0.19578668	-0.56825866	-0.03953427	0.00000116	0	-0.00000072	0	6.32942008	0	0	0.00000015	0.00000000
29.84000000	25.70178580	647.12003460	55.20801673	0.56948858	0	-0.60497232	-0.19387823	-0.51797756	-0.05663499	0.00000051	0	-0.00000032	0	6.34313345	0	0	0.00000002	0.00000000
29.85000000	26.82700571	651.38522279	55.90109108	0.56666731	0	-0.60502629	-0.19363078	-0.52467005	-0.04978061	0.00000010	0	-0.00000006	0	6.31597384	0	0	-0.00000003	0.00000000
29.86000000	28.13417698	655.40439885	56.61485042	0.56399902	0	-0.60513087	-0.18611956	-0.52184166	-0.04777116	-0.00000007	0	0.00000004	0	6.23024191	0	0	-0.00000003	-0.00000000
29.87000000	29.53565518	658.78812051	57.30175305	0.56161963	0	-0.60527444	-0.16676163	-0.49871056	-0.03098453	-0.00000012	0	0.00000007	0	6.10343513	0	0	-0.00000003	0.00000000
29.88000000	30.86661016	661.21745472	57.90840175	0.55937483	0	-0.60543393	-0.14270801	-0.48802535	-0.01166417	-0.00000013	0	0.00000007	0	5.97215792	0	0	-0.00000003	0.00000000
29.89000000	32.09679780	662.38028108	58.38289257	0.55705616	0	-0.60559923	-0.12629526	-0.48690713	-0.00771950	-0.00000006	0	0.00000004	0	5.84143914	0	0	0.00000002	-0.00000000
29.90000000	33.25277978	662.06903565	58.71228315	0.55471116	0	-0.60578785	-0.12482193	-0.44635859	-0.01562079	0.00000018	0	-0.00000009	0	5.70932068	0	0	0.00000014	0.00000000
29.91000000	34.34733362	660.23730883	58.92292978	0.55262080	0	-0.60599981	-0.14226337	-0.38448595	-0.02438804	0.00000072	0	-0.00000038	0	5.58271137	0	0	0.00000034	-0.00000000
29.92000000	35.32423813	656.86828684	59.06245632	0.55097010	0	-0.60622414	-0.16459228	-0.38595633	-0.05025683	0.00000153	0	-0.00000082	0	5.45128019	0	0	0.00000054	0.00000000
29.93000000	36.15153295	652.09878691	59.12861497	0.54972870	0	-0.60647370	-0.17594072	-0.46025752	-0.05971493	0.00000194	0	-0.00000107	0	5.31087950	0	0	0.00000035	-0.00000000
29.94000000	36.77832584	646.04774391	59.11448989	0.54866208	0	-0.60677470	-0.17075117	-0.55532137	-0.04765726	0.00000014	0	-0.00000018	0	5.13428034	0	0	-0.00000099	0.00000000
29.95000000	37.26039811	638.88467197	59.01511996	0.54749804	0	-0.60713653	-0.15335151	-0.60040315	0.00186279	-0.00000694	0	0.00000351	0	4.89240829	0	0	-0.00000433	0.00000000
29.96000000	37.70513154	630.99177401	58.86370410	0.54596149	0	-0.60749658	-0.13349883	-0.57469513	0.04727613	-0.00002174	0	0.00001142	0	4.61030551	0	0	-0.00000950	0.00000000
29.97000000	38.24510505	622.85518069	58.69490794	0.54420540	0	-0.60783315	-0.13115672	-0.51282136	0.05959964	-0.00004019	0	0.00002163	0	4.32188784	0	0	-0.00001265	0.00000000
29.98000000	38.92260397	614.94894351	58.55643552	0.54244623	0	-0.60814874	-0.13945848	-0.42142877	0.06822912	-0.00004052	0	0.00002285	0	4.02289415	0	0	-0.00000266	-0.00000000
29.99000000	39.66043222	607.61246786	58.47756110	0.54097268	0	-0.60849687	-0.14178424	-0.31149568	0.06562920	0.00002847	0	-0.00001213	0	3.72561644	0	0	0.00003983	0.00000000
30.00000000	40.43840851	600.52147998	58.40261046	0.53974987	0	-0.60886841	-0.12562588	-0.21214722	0.06128644	0.00024073	0	-0.00012374	0	3.47646080	0	0	0.00013191	-0.00000000
30.01000000	41.29950467	593.11536918	58.30171308	0.53881056	0	-0.60926623	-0.09323850	-0.18019515	0.05917882	0.00062840	0	-0.00033252	0	3.27556623	0	0	0.00025247	-0.00000000
30.02000000	42.17145032	584.60955417	58.04872839	0.53802814	0	-0.60970165	-0.08827348	-0.22015701	0.04487899	0.00100937	0	-0.00054794	0	3.12635459	0	0	0.00027210	-0.00000000
30.03000000	42.80305593	574.53838526	57.56575320	0.53724969	0	-0.61017930	-0.17309451	-0.28844740	0.03845993	0.00070473	0	-0.00041517	0	2.99746736	0	0	-0.00012504	-0.00000000
30.04000000	43.02414619	562.91015781	56.82798918	0.53642863	0	-0.61067802	-0.39857650	-0.56435038	0.09103674	-0.00167174	0	0.00080776	0	2.87098897	0	0	-0.00141425	0.00000000
